inDegrees=no
num_controls=7
num_derivatives=13
num_iterations=111
num_multipliers=7
num_parameters=0
num_slacks=7
num_states=26
objective=4.989252
objective_accelerations=0.703965
objective_balance=0.058237
objective_effort=0.691245
objective_height=3.442142
objective_ligament=0.093664
solver_duration=1173.833398
status=Solve_Succeeded
success=true
DataType=double
version=3
OpenSimVersion=4.4-2022-07-23-0e9fedc
endheader
time	/jointset/ground_pelvis/pelvis_tilt/value	/jointset/ground_pelvis/pelvis_tx/value	/jointset/ground_pelvis/pelvis_ty/value	/jointset/hip_l/hip_flexion_l/value	/jointset/hip_l/hip_adduction_l/value	/jointset/hip_l/hip_rotation_l/value	/jointset/back/lumbar_extension/value	/jointset/patellofemoral_l/patellar_flexion_l/value	/jointset/knee_l/knee_flexion_l/value	/jointset/knee_l/knee_adduction_l/value	/jointset/knee_l/knee_rotation_l/value	/jointset/ankle_l/ankle_angle_l/value	/jointset/subtalar_l/subtalar_angle_l/value	/jointset/ground_pelvis/pelvis_tilt/speed	/jointset/ground_pelvis/pelvis_tx/speed	/jointset/ground_pelvis/pelvis_ty/speed	/jointset/hip_l/hip_flexion_l/speed	/jointset/hip_l/hip_adduction_l/speed	/jointset/hip_l/hip_rotation_l/speed	/jointset/back/lumbar_extension/speed	/jointset/patellofemoral_l/patellar_flexion_l/speed	/jointset/knee_l/knee_flexion_l/speed	/jointset/knee_l/knee_adduction_l/speed	/jointset/knee_l/knee_rotation_l/speed	/jointset/ankle_l/ankle_angle_l/speed	/jointset/subtalar_l/subtalar_angle_l/speed	/forceset/tau_hip_flexion_l	/forceset/tau_hip_adduction_l	/forceset/tau_hip_rotation_l	/forceset/tau_knee_flexion_l	/forceset/tau_ankle_angle_l	/forceset/tau_subtalar_angle_l	/forceset/tau_lumbar_extension	lambda_cid13_p0	lambda_cid13_p1	lambda_cid13_p2	lambda_cid13_p3	lambda_cid13_p4	lambda_cid13_p5	lambda_cid14_p0	/jointset/ground_pelvis/pelvis_tilt/accel	/jointset/ground_pelvis/pelvis_tx/accel	/jointset/ground_pelvis/pelvis_ty/accel	/jointset/hip_l/hip_flexion_l/accel	/jointset/hip_l/hip_adduction_l/accel	/jointset/hip_l/hip_rotation_l/accel	/jointset/back/lumbar_extension/accel	/jointset/patellofemoral_l/patellar_flexion_l/accel	/jointset/knee_l/knee_flexion_l/accel	/jointset/knee_l/knee_adduction_l/accel	/jointset/knee_l/knee_rotation_l/accel	/jointset/ankle_l/ankle_angle_l/accel	/jointset/subtalar_l/subtalar_angle_l/accel	gamma_cid13_p0	gamma_cid13_p1	gamma_cid13_p2	gamma_cid13_p3	gamma_cid13_p4	gamma_cid13_p5	gamma_cid14_p0
0.5	-0.1535595915142638	-0.07445753667888311	0.684257556911179	1.367923980941755	-0.3232484112704542	0.03930805364714483	-0.8396784915210902	1.348883628000003	1.348883628000014	-0.04600472097142614	-0.174512146545912	0.2290773258315056	0.05030406920781071	-0.1655610765053125	-0.127225579056143	-0.8783218829792715	2.692279404044916	0.06610221860097049	0.8430564415839358	-0.7565324165914579	2.798142515694069	2.798142515694064	0.2728140591777238	0.0003039238088992943	0.4609087548123726	0.26022912339653	-0.342918969056118	-0.006368975767112031	-0.002757503107896887	-0.3260097978604899	0.108242100551025	0.0328808103597094	0.3861295706740219	-9.968403612110826	-11.92152324028558	0.7458676725284632	-18.83471707818531	-713.7879318285148	-68.66545157723478	-0.04255992725111854	1.31171824766605	1.206881037999459	-0.2595762261861643	-2.328272761310437	0.7653568708144876	-0.5351645239748355	2.676525865208891	-2.769657967817643	-2.769657967817671	-0.1340368280380091	0.01044932425120933	-1.917211360677556	0.3906990438120129	-2.156127437906182e-07	-2.107040650095223e-08	2.534292875437586e-06	5.317327132173269e-08	-3.15082490373342e-07	1.75607254558567e-06	-4.222904894839181e-07
0.51	-0.1551492961366038	-0.07566968225496201	0.6754634001072557	1.394727527405224	-0.3225498538313012	0.04771309783129663	-0.8471096878439689	1.376723092300575	1.376723092300574	-0.04328587723897686	-0.1745091407716538	0.2335891099553741	0.05292432338002177	-0.1523359935873045	-0.1152288553858489	-0.880293583686843	2.668108678188836	0.07359472385399703	0.8378992887510234	-0.7296992070670001	2.769388274596704	2.769388274596702	0.2709397338647712	0.0002846873164345761	0.4413373736778659	0.2637514929191736	-0.3510043067003105	-0.007666410935860375	-0.002127919247140302	-0.333699514482692	0.1082430536750105	0.03136775404764312	0.3942803439946465	-10.59191440984657	-10.99097849881882	0.4098965162331984	-18.38427814670765	-722.5725793677777	-68.52709244029288	-0.04235872359204799	1.334446028046274	1.192275539073121	-0.1336363592583064	-2.509695103691005	0.7386908534115173	-0.5142452702430169	2.687864633550616	-2.982541860818274	-2.982541860817814	-0.2165010446622757	-0.009477817334475903	-1.993671202778526	0.3221800218143047	-1.360741633218902e-07	7.860611298181867e-08	2.170179547142368e-06	-3.905829568155119e-09	-2.438907093927841e-07	1.624926146801678e-06	-3.52908757922835e-07
0.52	-0.1566054413869274	-0.07676261909283193	0.6666559924230131	1.421279722088946	-0.3217768726394463	0.05606491956566634	-0.854272322844106	1.404264167254148	1.404264167254135	-0.04058625089200031	-0.1745066008985839	0.2379018663253094	0.05557763607052389	-0.1388492021021867	-0.1033838314143424	-0.8809720590430887	2.642009048095384	0.08098696914161377	0.8324119516263662	-0.7028201520431041	2.738464646294443	2.738464646294444	0.2689705820822804	0.000210743570401282	0.4211032040257086	0.2668408270547654	-0.3590896443445064	-0.008963846104603714	-0.001498335386380261	-0.3413892311048961	0.1082440067989961	0.02985469773558305	0.402431117315268	-11.23308843560845	-10.05232738871729	0.06690896563189945	-17.93613111009904	-731.5793440306916	-68.4685629170433	-0.04207586284556923	1.36405996108789	1.176541098242031	-0.0009311559210350482	-2.714053608785013	0.7453048777324297	-0.6012013823239377	2.685694965096471	-3.203535408797016	-3.203535408797014	-0.1530021219456548	-0.000492126462711049	-2.049769064207507	0.3040919664015743	-8.123271311292136e-08	6.938550649007668e-08	1.810400783780025e-06	-6.625887185269731e-08	-1.963512996130514e-07	1.447963173373196e-06	-3.002603878321614e-07
0.53	-0.1579256388205163	-0.07773793504470915	0.657848248035184	1.447561523779868	-0.3209302609158178	0.06435979181136256	-0.8611660471781241	1.43148545653567	1.431485456535655	-0.03790605262295711	-0.1745048822492798	0.2420093469852469	0.05826002955293112	-0.1251661482864798	-0.09171134051338389	-0.8803610778219563	2.614040428161146	0.08832141914889385	0.8265148636368638	-0.6759332391973046	2.705453141026712	2.70545314102672	0.2670493256394054	0.0001320896000418632	0.4003153333612936	0.2695756999413996	-0.3665367430690543	-0.0103929803032074	-0.0008270291155620823	-0.3489298417438538	0.1083787913143913	0.02827438659715954	0.4099827618570975	-11.80808292903724	-9.086593434415192	-0.2912060931139903	-17.48396978566635	-740.079067985756	-68.39612979460081	-0.04172483639306244	1.374020281861061	1.157786051464044	0.1244395900864633	-2.884925230199331	0.7251938988911579	-0.5913052883351867	2.688910778696248	-3.400913911911042	-3.400913911909861	-0.2147517507716609	-0.01132714213593531	-2.104901975711617	0.2486545232069402	-3.077093352923593e-08	4.098233683223937e-08	1.434328851293873e-06	-1.2932876777311e-07	-1.526268813140411e-07	1.219002312193354e-06	-2.455182785229783e-07
